<?xml version="1.0" encoding="UTF-8"?>
<svg width="103px" height="84px" viewBox="0 0 103 84" version="1.1" xmlns="http://www.w3.org/2000/svg" xmlns:xlink="http://www.w3.org/1999/xlink">
    <!-- Generator: Sketch 48.2 (47327) - http://www.bohemiancoding.com/sketch -->
    <title>empty_cart_shopt</title>
    <desc>Created with Sketch.</desc>
    <defs></defs>
    <g id="Symbols" stroke="none" stroke-width="1" fill="none" fill-rule="evenodd">
        <g id="Group-3" transform="translate(-41.000000, -23.000000)" stroke="#DFDFDF">
            <g id="empty_cart_market" transform="translate(43.000000, 24.000000)">
                <g id="Group-2">
                    <g id="Page-1">
                        <path d="M11.0769231,37.1668388 L15.104777,79.1596391 C15.2472218,80.6477839 16.4383028,81.7670455 17.871843,81.7670455 L81.817434,81.7670455 C83.2540049,81.7670455 84.4450859,80.6477839 84.5875307,79.1596391 L88.6153846,37.1668388 L11.0769231,37.1668388 Z" id="Stroke-1" stroke-width="2.4000001"></path>
                        <path d="M19.9920404,18.5834194 C19.5548464,18.5834194 19.123767,18.4017387 18.8210942,18.0502906 C18.2738374,17.4218539 18.3624992,16.4806879 19.0106469,15.9535159 L38.1065465,0.346840149 C38.7577515,-0.180331913 39.7177439,-0.0969374622 40.2558288,0.531499289 C40.8030856,1.15993604 40.7144239,2.10110198 40.0662762,2.63125241 L20.9703766,18.2349498 C20.6891049,18.4672629 20.3375153,18.5834194 19.9920404,18.5834194 Z" id="Stroke-5" stroke-width="1.5" fill="#DFDFDF"></path>
                        <path d="M76.0068149,18.5834194 C75.6644383,18.5834194 75.3128909,18.4672754 75.028596,18.2349873 L55.9319293,2.63297318 C55.2869162,2.09990188 55.1982651,1.16181551 55.7393424,0.5304685 C56.2895905,-0.0949224093 57.2464109,-0.181285916 57.8944809,0.345829279 L76.9911477,15.9508215 C77.6361607,16.4809147 77.7248118,17.4190011 77.1837345,18.0503481 C76.8780411,18.4017583 76.4470134,18.5834194 76.0068149,18.5834194" id="Fill-7" fill="#DFDFDF"></path>
                        <path d="M94.4811189,37.1668388 L5.21118881,37.1668388 C2.33823776,37.1668388 0,35.0032458 0,32.3448776 L0,23.4053807 C0,20.7470125 2.33823776,18.5834194 5.21118881,18.5834194 L94.4811189,18.5834194 C97.3540699,18.5834194 99.6923077,20.7470125 99.6923077,23.4053807 L99.6923077,32.3448776 C99.6923077,35.0032458 97.3570909,37.1668388 94.4811189,37.1668388 Z" id="Stroke-11" stroke-width="2.4000001" stroke-linecap="round" stroke-linejoin="round"></path>
                    </g>
                    <g id="Group" transform="translate(26.000000, 48.000000)" stroke-linecap="round" stroke-width="1.60000002">
                        <path d="M0.787930502,1.33219954 C0.787930502,1.14580343 0.938234907,0.994699538 1.12364479,0.994699538 C1.30905467,0.994699538 1.45935907,1.14580343 1.45935907,1.33219954 L1.45935907,17.4242704 C1.45935907,17.6106665 1.30905467,17.7617704 1.12364479,17.7617704 C0.938234907,17.7617704 0.787930502,17.6106665 0.787930502,17.4242704 L0.787930502,1.33219954 Z M12.0243784,1.33219954 C12.0243784,1.14580343 12.1746828,0.994699538 12.3600927,0.994699538 C12.5455025,0.994699538 12.6958069,1.14580343 12.6958069,1.33219954 L12.6958069,17.4242704 C12.6958069,17.6106665 12.5455025,17.7617704 12.3600927,17.7617704 C12.1746828,17.7617704 12.0243784,17.6106665 12.0243784,17.4242704 L12.0243784,1.33219954 Z M23.2608263,1.33219954 C23.2608263,1.14580343 23.4111307,0.994699538 23.5965405,0.994699538 C23.7819504,0.994699538 23.9322548,1.14580343 23.9322548,1.33219954 L23.9322548,17.4242704 C23.9322548,17.6106665 23.7819504,17.7617704 23.5965405,17.7617704 C23.4111307,17.7617704 23.2608263,17.6106665 23.2608263,17.4242704 L23.2608263,1.33219954 Z M34.4972741,1.33219954 C34.4972741,1.14580343 34.6475785,0.994699538 34.8329884,0.994699538 C35.0183983,0.994699538 35.1687027,1.14580343 35.1687027,1.33219954 L35.1687027,17.4242704 C35.1687027,17.6106665 35.0183983,17.7617704 34.8329884,17.7617704 C34.6475785,17.7617704 34.4972741,17.6106665 34.4972741,17.4242704 L34.4972741,1.33219954 Z M45.733722,1.33219954 C45.733722,1.14580343 45.8840264,0.994699538 46.0694363,0.994699538 C46.2548462,0.994699538 46.4051506,1.14580343 46.4051506,1.33219954 L46.4051506,17.4242704 C46.4051506,17.6106665 46.2548462,17.7617704 46.0694363,17.7617704 C45.8840264,17.7617704 45.733722,17.6106665 45.733722,17.4242704 L45.733722,1.33219954 Z" id="Combined-Shape"></path>
                    </g>
                </g>
            </g>
        </g>
    </g>
</svg>